# xmcd
#
# Track frame offsets:
#	182
#	11695
#	25190
#	39712
#	52265
#	70207
#	84295
#	96182
#	107432
#	121540
#	134285
#	144647
#	155065
#	167192
#	180012
#	196035
#
# Disc length: 2815 seconds
#
# Revision: 2
# Processed by: cddbd v1.5.2PL0 Copyright (c) Steve Scherf et al.
# Submitted via: dBpowerAMP V4.0
#
DISCID=cb0afd10
DTITLE=Various Artist - The Soul Kitchen
DYEAR=1992
DGENRE=Soul
TTITLE0=Same and Dave - Soul Man
TTITLE1=Eddie Floyd - Knock On Wood
TTITLE2=Bobby Womack - That's The Way I Fell About Cha
TTITLE3=Irma Thomas - Ruler Of My Heart
TTITLE4=Brook Benton - Rainy Night In Georgia
TTITLE5=Joe Tex - Hold What You've Got
TTITLE6=Barbara Lewis - Hello Stranger
TTITLE7=Solomon Burke - If You Need Me
TTITLE8=Clarence Carter - Patches
TTITLE9=Fontella Bass - Rescue Me
TTITLE10=Brenton Wood - Gimme A Little Sign
TTITLE11=Rufus Thomas - Walking The Dog
TTITLE12=Tyrone Dacis - Turn Back The Hand Of Time
TTITLE13=Carla Thomas - B.a.b.y.
TTITLE14=Jimmy Castor Bunch - Trojlodyte
TTITLE15=Al Wilson - The Snake
EXTD=
EXTT0=
EXTT1=
EXTT2=
EXTT3=
EXTT4=
EXTT5=
EXTT6=
EXTT7=
EXTT8=
EXTT9=
EXTT10=
EXTT11=
EXTT12=
EXTT13=
EXTT14=
EXTT15=
PLAYORDER=
